PathFileType	4	(X/Y/Z)	TVC_32_BWA_06_walk_RCNL2025.trc
DataRate	CameraRate	NumFrames	NumMarkers	Units	OrigDataRate	OrigDataStartFrame	OrigNumFrames
100	100	12	27	mm	100	97	386
Frame#	Time	R_Shoulder			L_Shoulder			C7			J_Notch			R_Elbow			L_Elbow			R_Wrist			L_Wrist			R_Asis			L_Asis			R_Psis			L_Psis			Sacral			Thoracic			Sternum			R_Thigh_Lateral			R_Knee_Lateral			R_Shank_Lateral			R_Ankle_Lateral			R_Heel			R_Toe			L_Thigh_Lateral			L_Knee_Lateral			L_Shank_Lateral			L_Ankle_Lateral			L_Heel			L_Toe		
		X1	Y1	Z1	X2	Y2	Z2	X3	Y3	Z3	X4	Y4	Z4	X5	Y5	Z5	X6	Y6	Z6	X7	Y7	Z7	X8	Y8	Z8	X9	Y9	Z9	X10	Y10	Z10	X11	Y11	Z11	X12	Y12	Z12	X13	Y13	Z13	X14	Y14	Z14	X15	Y15	Z15	X16	Y16	Z16	X17	Y17	Z17	X18	Y18	Z18	X19	Y19	Z19	X20	Y20	Z20	X21	Y21	Z21	X22	Y22	Z22	X23	Y23	Z23	X24	Y24	Z24	X25	Y25	Z25	X26	Y26	Z26	X27	Y27	Z27
97	0.96000000	-997.292053	1481.957031	523.090637	-1008.676086	1454.179810	149.136795	-1051.652832	1519.748901	338.366272	-895.004395	1411.168945	341.932404	-1126.690796	1153.888184	632.101807	-988.467896	1126.469116	38.627518	-1116.242004	881.269104	590.952667	-821.345428	912.812378	71.294201	-986.125183	1002.353333	474.211639	-1028.252441	1032.288818	196.481903	-1183.995483	1038.845825	417.810333	-1199.051392	1045.083862	316.920013	-1191.523438	1041.964844	367.365173	-1147.126831	1271.645752	362.400055	-884.862305	1263.577393	333.615173	-1026.407349	627.664062	527.816101	-954.543701	504.752686	470.972046	-975.602844	294.503937	523.509399	-944.461609	79.371925	446.632355	-997.573059	52.181618	384.125946	-794.790405	43.789722	430.967529	-1131.331421	697.269470	111.666679	-1149.375244	520.434631	154.317657	-1271.531616	401.719452	104.547859	-1384.468628	143.855377	171.388641	-1439.743652	166.942917	229.669052	-1280.710815	43.165714	190.057022
98	0.97000000	-988.810608	1483.614258	525.101746	-1002.161194	1455.227539	151.281265	-1044.122437	1521.112793	340.726624	-887.500610	1412.471313	343.556793	-1115.145386	1154.405273	634.823120	-985.751404	1127.395020	40.654095	-1101.097717	881.946075	593.410919	-823.755951	909.431702	71.287447	-978.375610	1003.516479	475.568115	-1021.746155	1034.256836	198.448349	-1176.561890	1040.432129	420.393494	-1191.987427	1046.400269	319.430298	-1184.274658	1043.416199	369.911896	-1139.710571	1273.012939	365.305481	-877.608032	1264.824951	335.438965	-1022.408508	628.588379	529.526855	-952.850037	504.768097	471.933167	-974.787170	294.550201	524.287720	-944.550659	79.337364	446.961304	-997.690857	52.251152	384.444275	-794.866760	43.762444	431.189606	-1118.729248	698.663513	110.467415	-1133.651367	521.003967	151.053192	-1258.557495	404.318878	102.792686	-1377.913818	150.374786	171.500809	-1431.750732	175.856552	230.242355	-1278.433350	45.012756	190.210617
99	0.98000000	-980.475647	1485.092163	527.013550	-995.886108	1456.120605	153.318604	-1036.779663	1522.305054	343.012390	-880.195557	1413.560303	345.047668	-1103.560669	1154.763306	637.630493	-983.574097	1128.194580	42.638908	-1085.724792	882.535217	595.859589	-826.438629	906.352386	70.999678	-970.821777	1004.552551	476.974579	-1015.271240	1035.903931	200.368469	-1169.279419	1041.836914	422.869446	-1185.032104	1047.482422	321.808411	-1177.155762	1044.659668	372.338928	-1132.444824	1274.207642	368.111725	-870.526001	1265.870483	337.144012	-1018.543335	629.367065	531.112976	-951.030457	504.740997	472.826813	-973.878784	294.595917	524.948547	-944.579468	79.313568	447.214081	-997.778259	52.317753	384.683777	-794.927795	43.726315	431.369324	-1105.674561	699.881470	109.172150	-1117.337158	521.529846	147.755646	-1244.611084	406.734375	100.873268	-1370.545532	157.191254	171.723755	-1423.043823	184.924942	230.809021	-1275.224731	47.614677	190.281143
100	0.99000000	-972.294922	1486.364014	528.824646	-989.854370	1456.864868	155.237152	-1029.628418	1523.335815	345.204224	-873.100220	1414.440552	346.394714	-1091.913452	1154.924072	640.512024	-981.954590	1128.857910	44.579498	-1070.172607	883.013763	598.290375	-829.370972	903.558838	70.444948	-963.496277	1005.443542	478.464478	-1008.784729	1037.226929	202.239639	-1162.152466	1043.044067	425.219116	-1178.176147	1048.337524	324.049530	-1170.164307	1045.690796	374.634323	-1125.330566	1275.237793	370.791901	-863.615540	1266.730103	338.722473	-1014.885742	630.010498	532.523010	-949.076416	504.680328	473.667633	-972.914429	294.635315	525.511230	-944.551880	79.296143	447.396698	-997.830322	52.379700	384.842255	-794.978699	43.684761	431.514282	-1092.274902	700.978821	107.806137	-1100.587402	522.085449	144.460724	-1229.856201	408.996582	98.848473	-1362.313965	164.180206	172.048065	-1413.554932	193.919495	231.424728	-1270.825439	50.957733	190.139069
101	1.00000000	-964.271729	1487.413940	530.536499	-984.068909	1457.472168	157.030136	-1022.667236	1524.224854	347.288269	-866.210938	1415.136475	347.596985	-1080.168457	1154.862305	643.446350	-980.900024	1129.387817	46.473373	-1054.483521	883.359619	600.699066	-832.537903	901.028503	69.642750	-956.426880	1006.179810	480.057159	-1002.258057	1038.251587	204.054230	-1155.184204	1044.050293	427.422424	-1171.407104	1048.982544	326.149017	-1163.295654	1046.516418	376.785721	-1118.364502	1276.119019	373.322235	-856.875305	1267.432007	340.173370	-1011.429443	630.545044	533.760132	-946.999268	504.603943	474.476715	-971.911133	294.670959	526.014099	-944.479919	79.280556	447.527191	-997.851013	52.439800	384.933258	-795.028442	43.643295	431.640717	-1078.660278	702.030518	106.391602	-1083.588623	522.751282	141.196350	-1214.510254	411.149384	96.786911	-1353.145630	171.149750	172.434937	-1403.193604	202.550735	232.123535	-1264.993530	54.917713	189.642868
102	1.01000000	-956.404480	1488.239624	532.152161	-978.528931	1457.959717	158.694122	-1015.885315	1524.997437	349.257690	-859.511475	1415.685913	348.662262	-1068.282104	1154.565063	646.404480	-980.399841	1129.799927	48.320744	-1038.689880	883.553406	603.085785	-835.928375	898.740662	68.617399	-949.627258	1006.766052	481.759003	-995.675171	1039.022461	205.804779	-1148.374268	1044.864990	429.459778	-1164.709351	1049.445312	328.100220	-1156.541809	1047.155151	378.779999	-1111.540405	1276.872925	375.683746	-850.301880	1268.009277	341.503784	-1008.107422	631.004639	534.872925	-944.822266	504.531036	475.276428	-970.870422	294.710327	526.496948	-944.378479	79.262840	447.626160	-997.847229	52.503830	384.975494	-795.086792	43.608124	431.767487	-1064.970215	703.118408	104.951431	-1066.533081	523.598755	137.990112	-1198.809814	413.236053	94.755554	-1342.947388	177.850037	172.813095	-1391.859985	210.490265	232.895889	-1257.512695	59.271011	188.671555
103	1.02000000	-948.687317	1488.850830	533.674438	-973.225037	1458.347412	160.231033	-1009.262268	1525.680298	351.112061	-852.980225	1416.131836	349.604065	-1056.211060	1154.032837	649.351990	-980.423035	1130.122314	50.126183	-1022.812683	883.583588	605.453247	-839.532440	896.680206	67.398232	-943.079163	1007.227966	483.572723	-989.025208	1039.591064	207.491135	-1141.717041	1045.508667	431.315796	-1158.067993	1049.762329	329.893860	-1149.892517	1047.635498	380.604828	-1104.849731	1277.523438	377.863373	-843.888000	1268.495117	342.727631	-1004.827942	631.421814	535.928345	-942.572510	504.475769	476.083496	-969.789429	294.759247	526.987061	-944.261047	79.240028	447.709625	-997.825989	52.577454	384.985779	-795.161194	43.584476	431.909607	-1051.343262	704.315979	103.512383	-1049.592163	524.676147	134.875732	-1182.969604	415.285400	92.805763	-1331.613159	183.992950	173.085129	-1379.463257	217.403809	233.676773	-1248.194946	63.732822	187.151489
104	1.03000000	-941.112427	1489.267212	535.103577	-968.136963	1458.656494	161.649811	-1002.773376	1526.296997	352.855103	-846.594299	1416.516113	350.438995	-1043.919922	1153.282104	652.250427	-980.921265	1130.394409	51.898598	-1006.859344	883.450226	607.805145	-843.338470	894.838196	66.019200	-936.727417	1007.613525	485.506042	-982.300171	1040.007446	209.122589	-1135.202393	1046.009521	432.981781	-1151.472046	1049.975220	331.519379	-1143.337219	1047.992371	382.250580	-1098.282593	1278.094360	379.856354	-837.620178	1268.919678	343.860596	-1001.511169	631.819214	536.980103	-940.275085	504.442474	476.903259	-968.669983	294.816895	527.494080	-944.137085	79.209831	447.785522	-997.793091	52.663597	384.976685	-795.254272	43.574978	432.072662	-1037.904785	705.673767	102.108162	-1032.901001	526.004883	131.893875	-1167.147217	417.299072	90.964394	-1319.034912	189.281204	173.139709	-1365.938477	222.988815	234.348785	-1236.887207	68.001678	185.067596
105	1.04000000	-933.671692	1489.514526	536.437500	-963.236450	1458.911499	162.964188	-996.395691	1526.865479	354.492157	-840.330750	1416.874023	351.185638	-1031.382812	1152.344482	655.060059	-981.834351	1130.666016	53.649529	-990.825836	883.164734	610.143555	-847.332062	893.211761	64.517639	-930.506226	1007.980896	487.564087	-975.498474	1040.317505	210.714539	-1128.817261	1046.398926	434.455231	-1144.915039	1050.126587	332.968018	-1136.866150	1048.262756	383.711624	-1091.828857	1278.604614	381.667114	-831.478027	1269.309082	344.915588	-998.112549	632.206726	538.052124	-937.950134	504.424805	477.729736	-967.522766	294.876129	528.012695	-944.012146	79.170464	447.853577	-997.754517	52.761528	384.956390	-795.362488	43.578648	432.249695	-1024.754517	707.209351	100.781471	-1016.554626	527.581055	129.089981	-1151.417480	419.241364	89.236809	-1305.119995	193.445984	172.863831	-1351.256470	227.005753	234.759354	-1223.479248	71.792122	182.460983
106	1.05000000	-926.356812	1489.619751	537.675720	-958.491699	1459.140747	164.189575	-990.111633	1527.395142	356.027435	-834.171570	1417.228638	351.861389	-1018.584167	1151.262085	657.741455	-983.094055	1130.991089	55.390656	-974.703400	882.746185	612.468536	-851.497192	891.802490	62.933460	-924.372620	1008.379150	489.732208	-968.625916	1040.559814	212.284622	-1122.548218	1046.706177	435.740143	-1138.394653	1050.251465	334.237030	-1130.471436	1048.478821	384.988586	-1085.479492	1279.066895	383.307587	-825.437988	1269.687866	345.901245	-994.627075	632.584595	539.138000	-935.611267	504.410004	478.547211	-966.367249	294.929535	528.528503	-943.890686	79.121460	447.909454	-997.716431	52.867916	384.929840	-795.478455	43.592281	432.423920	-1011.960388	708.905701	99.581894	-1000.605835	529.377258	126.514297	-1135.771851	421.040161	87.614845	-1289.806396	196.278519	172.156982	-1335.417114	229.294571	234.749008	-1207.909180	74.858978	179.412933
107	1.06000000	-919.158813	1489.610596	538.821411	-953.867737	1459.370361	165.342346	-983.908813	1527.888428	357.463959	-828.107422	1417.589966	352.478119	-1005.520569	1150.080078	660.257629	-984.621887	1131.417847	57.132961	-958.485046	882.217194	614.779755	-855.815918	890.611572	61.307775	-918.315979	1008.835999	491.969208	-961.690430	1040.762695	213.850296	-1116.382080	1046.954346	436.847382	-1131.911255	1050.372681	335.332581	-1124.146667	1048.663513	386.089981	-1079.227173	1279.486816	384.793274	-819.479858	1270.076538	346.824219	-991.079407	632.948486	540.212158	-933.264526	504.385742	479.332520	-965.224976	294.975159	529.022888	-943.777893	79.064980	447.951508	-997.684326	52.978603	384.899445	-795.595642	43.612999	432.577423	-999.560974	710.716797	98.560005	-985.067871	531.348206	124.222038	-1120.144287	422.604340	86.080048	-1273.065552	197.646790	170.946777	-1318.433716	229.777969	234.182327	-1190.164917	77.022522	176.017487
108	1.07000000	-912.068115	1489.514771	539.878601	-949.326050	1459.618408	166.440033	-977.779724	1528.342285	358.805420	-822.135559	1417.954346	353.041412	-992.201172	1148.842529	662.575989	-986.328491	1131.978516	58.886330	-942.167755	881.602814	617.076965	-860.268250	889.635040	59.680508	-912.345215	1009.359009	494.215149	-954.699097	1040.944946	215.426071	-1110.306030	1047.158691	437.793427	-1125.467163	1050.497681	336.269012	-1117.886597	1048.828186	387.031219	-1073.067139	1279.864258	386.139954	-813.587341	1270.483398	347.692780	-987.506775	633.292603	541.242981	-930.910339	504.344177	480.062805	-964.107727	295.015411	529.477661	-943.679138	79.005386	447.982330	-997.661377	53.088173	384.864624	-795.709839	43.637527	432.698517	-987.573425	712.577881	97.761055	-969.924133	533.437744	122.270096	-1104.444580	423.844452	84.605835	-1254.897461	197.501007	169.198883	-1300.320679	228.458786	232.971619	-1170.284058	78.190125	172.355423
